# xmcd
#
# Track frame offsets: 
#        150
#        4781
#        22654
#        29062
#        40136
#        45944
#        60606
#        64207
#        89134
#        101318
#        109477
#        128079
#        134415
#        155563
#        158823
#        181490
#        203977
#        220807
#        224495
#        242712
#        246160
#        261523
#
# Disc length: 3647 seconds
#
# Revision: 0
# Processed by: cddbd v1.5.2PL0 Copyright (c) Steve Scherf et al.
# Submitted via: ExactAudioCopy v0.95b4
#
DISCID=430e3d16
DTITLE=Hartmut Höfele and Matz Scheid - De wildi Wildi Weschte
DYEAR=1999
DGENRE=Kinderlieder
TTITLE0=Hello, how are you?
TTITLE1=s'Spiel vom wilde Weschte
TTITLE2=D'Bösewicht im wilde Weschte
TTITLE3=S'Gschicht vom Billy, jack und John
TTITLE4=S'Trapperläbe
TTITLE5=De Trapper jacob Miller
TTITLE6=Ghungrig nachem Gold
TTITLE7=Am ufer vom «goldige River»
TTITLE8=S'wildi Weschterlied
TTITLE9=Chuebuebe und ihri Skifflemusig
TTITLE10=Mis chline Ross Galopp, Galopp ...
TTITLE11=De Mister Blackbart
TTITLE12=Nur no e Meile
TTITLE13=D'Daltons and Company
TTITLE14=Billy the Kid
TTITLE15=Gumbos Stampede
TTITLE16=Squaredancelied
TTITLE17=da sind aber nid nur jungs debii gsie
TTITLE18=Immer Richtig Weschte
TTITLE19=Mis Bett isch d'Kutsche
TTITLE20=Vo Winterthur nach Laramie
TTITLE21=Cowboystomper
EXTD=
EXTT0=
EXTT1=
EXTT2=
EXTT3=
EXTT4=
EXTT5=
EXTT6=
EXTT7=
EXTT8=
EXTT9=
EXTT10=
EXTT11=
EXTT12=
EXTT13=
EXTT14=
EXTT15=
EXTT16=
EXTT17=
EXTT18=
EXTT19=
EXTT20=
EXTT21=
PLAYORDER=
